<svg xmlns="http://www.w3.org/2000/svg" viewBox="0 0 1200 630" fill="none">
  <!-- Background gradient -->
  <defs>
    <linearGradient id="bg" x1="0%" y1="0%" x2="100%" y2="100%">
      <stop offset="0%" style="stop-color:#4F46E5"/>
      <stop offset="100%" style="stop-color:#7C3AED"/>
    </linearGradient>
  </defs>
  <rect width="1200" height="630" fill="url(#bg)"/>

  <!-- Icon -->
  <g transform="translate(100, 165)">
    <rect width="300" height="300" rx="48" fill="white" opacity="0.15"/>
    <g fill="white" transform="translate(50, 50)">
      <rect x="50" y="60" width="100" height="140" rx="4"/>
      <rect x="60" y="75" width="20" height="20" rx="2" fill="#6366F1"/>
      <rect x="90" y="75" width="20" height="20" rx="2" fill="#6366F1"/>
      <rect x="120" y="75" width="20" height="20" rx="2" fill="#6366F1"/>
      <rect x="60" y="105" width="20" height="20" rx="2" fill="#6366F1"/>
      <rect x="90" y="105" width="20" height="20" rx="2" fill="#6366F1"/>
      <rect x="120" y="105" width="20" height="20" rx="2" fill="#6366F1"/>
      <rect x="60" y="135" width="20" height="20" rx="2" fill="#6366F1"/>
      <rect x="90" y="135" width="20" height="20" rx="2" fill="#6366F1"/>
      <rect x="120" y="135" width="20" height="20" rx="2" fill="#6366F1"/>
      <rect x="85" y="165" width="30" height="35" rx="2"/>
      <path d="M100 30 L160 60 H40 Z"/>
    </g>
  </g>

  <!-- Text -->
  <text x="450" y="280" font-family="system-ui, -apple-system, sans-serif" font-size="72" font-weight="bold" fill="white">CondominioApp</text>
  <text x="450" y="360" font-family="system-ui, -apple-system, sans-serif" font-size="32" fill="white" opacity="0.9">La forma más fácil de administrar</text>
  <text x="450" y="405" font-family="system-ui, -apple-system, sans-serif" font-size="32" fill="white" opacity="0.9">tu condominio</text>

  <!-- Features -->
  <g font-family="system-ui, -apple-system, sans-serif" font-size="24" fill="white" opacity="0.8">
    <text x="450" y="480">✓ Cobra cuotas fácilmente</text>
    <text x="750" y="480">✓ Organiza asambleas</text>
    <text x="450" y="520">✓ Mantén las cuentas claras</text>
    <text x="750" y="520">✓ Comunica con vecinos</text>
  </g>
</svg>
